<svg width="100" height="100" viewBox="0 0 28 18" fill="none" xmlns="http://www.w3.org/2000/svg">
<path d="M27.2464 8.41039C27.0579 8.2229 24.6399 5.19181 24.2316 4.69184C23.792 4.19187 23.6036 4.28561 23.3209 4.31686C23.0383 4.34811 19.9922 4.87933 19.6468 4.91058C19.3013 4.97308 19.0815 5.09807 19.3013 5.41055C19.4897 5.69179 21.4996 8.50413 21.9392 9.16035L13.9313 11.0665L7.58787 0.473322C7.33665 0.0983423 7.27384 -0.0266508 6.70858 0.00459748C6.14332 0.0358458 1.71545 0.410825 1.40141 0.410825C1.08738 0.442074 0.741944 0.567067 1.05598 1.31703C1.37001 2.06698 6.39455 12.8164 6.52016 13.1289C6.64577 13.4414 7.02261 13.9413 7.8705 13.7538C8.7498 13.5351 11.7645 12.7539 13.4289 12.3164C14.3082 13.8788 16.0668 17.0662 16.4122 17.5349C16.8519 18.1599 17.1659 18.0349 17.8254 17.8474C18.3592 17.6911 26.053 14.9413 26.3985 14.785C26.7439 14.6288 26.9637 14.5351 26.7125 14.1913C26.5241 13.9413 24.5143 11.2227 23.4466 9.81656C24.1688 9.62907 26.7753 8.94161 27.0579 8.84786C27.372 8.75412 27.4348 8.59788 27.2464 8.41039ZM12.7066 11.379C12.6124 11.4102 8.12173 12.4727 7.90191 12.5352C7.65068 12.5977 7.65068 12.5664 7.65068 12.4727C7.58787 12.3789 2.31211 1.50452 2.2179 1.37952C2.15509 1.25453 2.15509 1.12954 2.2179 1.12954C2.28071 1.12954 6.45735 0.754557 6.58297 0.754557C6.73998 0.754557 6.70858 0.785805 6.77139 0.87955C6.77139 0.87955 12.6438 10.9727 12.738 11.129C12.8636 11.2852 12.8008 11.3477 12.7066 11.379ZM25.3308 13.7226C25.3936 13.8476 25.4878 13.9101 25.2365 13.9726C25.0167 14.0663 17.6683 16.5349 17.5113 16.5974C17.3543 16.6599 17.2601 16.6912 17.0717 16.41C16.8833 16.1287 14.4966 12.0352 14.4966 12.0352L22.316 10.0041C22.5045 9.94156 22.5673 9.91031 22.6929 10.0978C22.8185 10.3165 25.268 13.6289 25.3308 13.7226ZM25.8332 8.2229C25.6448 8.25415 22.7871 8.97286 22.7871 8.97286L20.4318 5.78553C20.369 5.69179 20.3062 5.59804 20.4632 5.56679C20.6203 5.53555 23.2895 5.06682 23.4152 5.03557C23.5408 5.00432 23.635 4.97308 23.792 5.19181C23.949 5.3793 25.9588 7.94166 26.053 8.03541C26.1472 8.12915 26.0216 8.19165 25.8332 8.2229Z" fill="#FB503B"/>
</svg>
