<svg width="1692" height="517" viewBox="0 0 1692 517" fill="none" xmlns="http://www.w3.org/2000/svg">
<g clip-path="url(#clip0)">
<path d="M-21.41 552C40.8 472.989 136.43 319.69 230.2 246.51C577.761 -24.1678 734.252 278.456 1296.48 42.1172C1652.94 -107.721 1702.04 281.304 1690.27 550.852L-21.41 552Z" fill="url(#paint0_linear)"/>
<path opacity="0.05" d="M243.485 724.434C202.085 538.723 339.944 476.457 471.512 380.167C727.06 193.543 841.768 370.311 1255.15 207.367C1668.54 44.423 1519.73 724.438 1519.73 724.438L243.485 724.434Z" fill="url(#paint1_linear)"/>
<path d="M1656.32 724.433C1697.72 538.723 1559.86 476.456 1428.29 380.167C1172.74 193.544 1058.03 370.311 644.647 207.363C231.261 44.4152 380.077 724.433 380.077 724.433H1656.32Z" fill="url(#paint2_linear)"/>
</g>
<defs>
<linearGradient id="paint0_linear" x1="-240.201" y1="-333.017" x2="1375.88" y2="1081.85" gradientUnits="userSpaceOnUse">
<stop stop-color="#484D98"/>
<stop offset="0.505903" stop-color="#484D98" stop-opacity="0.85"/>
<stop offset="0.87455" stop-color="#484D98" stop-opacity="0.83"/>
</linearGradient>
<linearGradient id="paint1_linear" x1="68.7264" y1="-159.136" x2="1574.49" y2="850.381" gradientUnits="userSpaceOnUse">
<stop stop-color="#141523"/>
<stop offset="0.505903" stop-color="#212125" stop-opacity="0.85"/>
<stop offset="0.87455" stop-color="#202025" stop-opacity="0.83"/>
</linearGradient>
<linearGradient id="paint2_linear" x1="186.728" y1="-159.141" x2="1692.49" y2="850.376" gradientUnits="userSpaceOnUse">
<stop stop-color="#484D98"/>
<stop offset="0.505903" stop-color="#484D98" stop-opacity="0.85"/>
<stop offset="0.87455" stop-color="#484D98" stop-opacity="0.83"/>
</linearGradient>
<clipPath id="clip0">
<rect width="1692" height="517" fill="white"/>
</clipPath>
</defs>
</svg>
