<?xml version="1.0" standalone="no"?><svg xmlns="http://www.w3.org/2000/svg" viewBox="0 0 1440 320"><path fill="#484c7f" fill-opacity="1" d="M0,128L30,154.7C60,181,120,235,180,224C240,213,300,139,360,122.7C420,107,480,149,540,181.3C600,213,660,235,720,234.7C780,235,840,213,900,181.3C960,149,1020,107,1080,117.3C1140,128,1200,192,1260,208C1320,224,1380,192,1410,176L1440,160L1440,0L1410,0C1380,0,1320,0,1260,0C1200,0,1140,0,1080,0C1020,0,960,0,900,0C840,0,780,0,720,0C660,0,600,0,540,0C480,0,420,0,360,0C300,0,240,0,180,0C120,0,60,0,30,0L0,0Z"></path></svg>